<svg viewBox="0 0 48 48" xmlns="http://www.w3.org/2000/svg"><g fill="none" fill-rule="evenodd"><path d="M22.019 36.541C22.021 37.955 23.126 39 24.523 39c1.395.002 2.471-1.172 2.469-2.586l-.021-20.701 5.716 5.765a2.505 2.505 0 0 0 3.575.002 2.582 2.582 0 0 0-.004-3.619l-9.844-9.968-.07-.069A2.519 2.519 0 0 0 24.485 7c-.734 0-1.395.314-1.857.82l-.069.071-9.821 9.943a2.583 2.583 0 0 0 .005 3.619 2.503 2.503 0 0 0 3.575.006l5.679-5.619.022 20.701Z" fill="#ffffff" class="fill-000000"></path></g></svg>